# Blender v2.79 (sub 0) OBJ File: 'fibers_on_plane.blend'
# www.blender.org
mtllib simple_scene.mtl
o Thin_Plane_Cube
v -0.728684 0.434797 -0.241799
v -0.728684 0.999139 -0.241799
v -0.629600 0.434797 -0.312712
v -0.629600 0.999139 -0.312712
v -0.447325 0.434797 0.151334
v -0.447325 0.999139 0.151334
v -0.348241 0.434797 0.080421
v -0.348241 0.999139 0.080421
vt 0.347095 0.319572
vt 0.652905 0.013761
vt 0.652905 0.319572
vt 0.013761 0.652905
vt 0.319572 0.347095
vt 0.319572 0.652905
vt 0.013762 0.319572
vt 0.319572 0.013761
vt 0.319572 0.319572
vt 0.347095 0.347095
vt 0.652905 0.652905
vt 0.347095 0.652905
vt 0.680428 0.319572
vt 0.986238 0.013761
vt 0.986238 0.319572
vt 0.319572 0.986238
vt 0.013761 0.680428
vt 0.319572 0.680428
vt 0.347095 0.013761
vt 0.013761 0.347095
vt 0.013761 0.013762
vt 0.652905 0.347095
vt 0.680428 0.013761
vt 0.013762 0.986239
vn -0.5820 0.0000 -0.8132
vn 0.8132 0.0000 -0.5820
vn 0.5820 0.0000 0.8132
vn -0.8132 0.0000 0.5820
vn 0.0000 -1.0000 0.0000
vn 0.0000 1.0000 -0.0000
usemtl Cube
s off
f 2/1/1 3/2/1 1/3/1
f 4/4/2 7/5/2 3/6/2
f 8/7/3 5/8/3 7/9/3
f 6/10/4 1/11/4 5/12/4
f 7/13/5 1/14/5 3/15/5
f 4/16/6 6/17/6 8/18/6
f 2/1/1 4/19/1 3/2/1
f 4/4/2 8/20/2 7/5/2
f 8/7/3 6/21/3 5/8/3
f 6/10/4 2/22/4 1/11/4
f 7/13/5 5/23/5 1/14/5
f 4/16/6 2/24/6 6/17/6
o Cone
v 0.461157 0.405431 -0.649988
v 0.540595 0.405431 -0.642164
v 0.616980 0.405431 -0.618993
v 0.687377 0.405431 -0.581365
v 0.749081 0.405431 -0.530726
v 0.799719 0.405431 -0.469023
v 0.837347 0.405431 -0.398626
v 0.860519 0.405431 -0.322241
v 0.868343 0.405431 -0.242803
v 0.860519 0.405431 -0.163365
v 0.837347 0.405431 -0.086980
v 0.799719 0.405431 -0.016583
v 0.749081 0.405431 0.045121
v 0.687377 0.405431 0.095760
v 0.616980 0.405431 0.133388
v 0.540595 0.405431 0.156559
v 0.461157 0.405431 0.164383
v 0.381719 0.405431 0.156559
v 0.305334 0.405431 0.133387
v 0.234937 0.405431 0.095759
v 0.173233 0.405431 0.045121
v 0.122595 0.405431 -0.016583
v 0.084967 0.405431 -0.086980
v 0.461157 1.219802 -0.242803
v 0.061795 0.405431 -0.163365
v 0.053972 0.405431 -0.242803
v 0.061796 0.405431 -0.322241
v 0.084967 0.405431 -0.398626
v 0.122595 0.405431 -0.469023
v 0.173234 0.405431 -0.530727
v 0.234937 0.405431 -0.581365
v 0.305334 0.405431 -0.618993
v 0.381720 0.405431 -0.642164
vt 0.466314 0.387552
vt 0.730466 0.018759
vt 0.492811 0.409552
vt 0.523760 0.429743
vt 0.557972 0.447348
vt 0.594133 0.461693
vt 0.630852 0.472224
vt 0.666718 0.478538
vt 0.700354 0.480392
vt 0.730466 0.477714
vt 0.017730 0.836917
vt 0.279727 0.471133
vt 0.040200 0.858294
vt 0.068066 0.878312
vt 0.100256 0.896200
vt 0.135533 0.911271
vt 0.172541 0.922947
vt 0.209858 0.930779
vt 0.246050 0.934465
vt 0.279727 0.933864
vt 0.742744 0.905070
vt 0.982270 0.517909
vt 0.770610 0.925088
vt 0.802800 0.942976
vt 0.838076 0.958048
vt 0.875084 0.969724
vt 0.912401 0.977555
vt 0.948594 0.981241
vt 0.982270 0.980640
vt 0.707285 0.518510
vt 0.707285 0.981241
vt 0.673608 0.517909
vt 0.637416 0.521595
vt 0.600099 0.529427
vt 0.563091 0.541103
vt 0.527814 0.556174
vt 0.495624 0.574063
vt 0.467759 0.594080
vt 0.445288 0.615457
vt 0.445288 0.364589
vt 0.156594 0.026730
vt 0.402294 0.165682
vt 0.270964 0.425644
vt 0.025264 0.286691
vt 0.017730 0.246617
vt 0.017730 0.205757
vt 0.025264 0.165683
vt 0.040042 0.127933
vt 0.061498 0.093959
vt 0.088805 0.065067
vt 0.120915 0.042367
vt 0.194470 0.018759
vt 0.233088 0.018759
vt 0.270964 0.026730
vt 0.306643 0.042367
vt 0.338753 0.065067
vt 0.366060 0.093959
vt 0.387516 0.127933
vt 0.409828 0.205757
vt 0.409828 0.246617
vt 0.402294 0.286692
vt 0.387516 0.324441
vt 0.366060 0.358415
vt 0.338753 0.387307
vt 0.306643 0.410008
vt 0.233088 0.433615
vt 0.194470 0.433615
vt 0.156593 0.425644
vt 0.120915 0.410007
vt 0.088805 0.387307
vt 0.061498 0.358415
vt 0.040042 0.324441
vn 0.0878 0.4455 -0.8910
vn 0.2599 0.4455 -0.8567
vn 0.4220 0.4455 -0.7896
vn 0.5680 0.4455 -0.6921
vn 0.6921 0.4455 -0.5680
vn 0.7896 0.4455 -0.4220
vn 0.8567 0.4455 -0.2599
vn 0.8910 0.4455 -0.0878
vn 0.8910 0.4455 0.0878
vn 0.8567 0.4455 0.2599
vn 0.7896 0.4455 0.4220
vn 0.6921 0.4455 0.5680
vn 0.5680 0.4455 0.6921
vn 0.4220 0.4455 0.7896
vn 0.2599 0.4455 0.8567
vn 0.0878 0.4455 0.8910
vn -0.0878 0.4455 0.8910
vn -0.2599 0.4455 0.8567
vn -0.4220 0.4455 0.7896
vn -0.5680 0.4455 0.6921
vn -0.6921 0.4455 0.5680
vn -0.7896 0.4455 0.4220
vn -0.8567 0.4455 0.2599
vn -0.8910 0.4455 0.0878
vn -0.8910 0.4455 -0.0878
vn -0.8567 0.4455 -0.2599
vn -0.7896 0.4455 -0.4220
vn -0.6921 0.4455 -0.5680
vn -0.5680 0.4455 -0.6921
vn -0.4220 0.4455 -0.7896
vn -0.2599 0.4455 -0.8567
vn -0.0878 0.4455 -0.8910
vn 0.0000 -1.0000 -0.0000
usemtl Cone
s off
f 9/25/7 32/26/7 10/27/7
f 10/27/8 32/26/8 11/28/8
f 11/28/9 32/26/9 12/29/9
f 12/29/10 32/26/10 13/30/10
f 13/30/11 32/26/11 14/31/11
f 14/31/12 32/26/12 15/32/12
f 15/32/13 32/26/13 16/33/13
f 16/33/14 32/26/14 17/34/14
f 17/35/15 32/36/15 18/37/15
f 18/37/16 32/36/16 19/38/16
f 19/38/17 32/36/17 20/39/17
f 20/39/18 32/36/18 21/40/18
f 21/40/19 32/36/19 22/41/19
f 22/41/20 32/36/20 23/42/20
f 23/42/21 32/36/21 24/43/21
f 24/43/22 32/36/22 25/44/22
f 25/45/23 32/46/23 26/47/23
f 26/47/24 32/46/24 27/48/24
f 27/48/25 32/46/25 28/49/25
f 28/49/26 32/46/26 29/50/26
f 29/50/27 32/46/27 30/51/27
f 30/51/28 32/46/28 31/52/28
f 31/52/29 32/46/29 33/53/29
f 33/54/30 32/55/30 34/56/30
f 34/56/31 32/55/31 35/57/31
f 35/57/32 32/55/32 36/58/32
f 36/58/33 32/55/33 37/59/33
f 37/59/34 32/55/34 38/60/34
f 38/60/35 32/55/35 39/61/35
f 39/61/36 32/55/36 40/62/36
f 40/62/37 32/55/37 41/63/37
f 41/64/38 32/26/38 9/25/38
f 16/65/39 24/66/39 33/67/39
f 41/68/39 9/69/39 10/70/39
f 10/70/39 11/71/39 12/72/39
f 12/72/39 13/73/39 14/74/39
f 14/74/39 15/75/39 12/72/39
f 15/75/39 16/65/39 12/72/39
f 16/65/39 17/76/39 18/77/39
f 18/77/39 19/78/39 16/65/39
f 19/78/39 20/79/39 16/65/39
f 20/79/39 21/80/39 24/66/39
f 21/80/39 22/81/39 24/66/39
f 22/81/39 23/82/39 24/66/39
f 24/66/39 25/83/39 26/84/39
f 26/84/39 27/85/39 28/86/39
f 28/86/39 29/87/39 30/88/39
f 30/88/39 31/89/39 33/67/39
f 33/67/39 34/90/39 35/91/39
f 35/91/39 36/92/39 37/93/39
f 37/93/39 38/94/39 41/68/39
f 38/94/39 39/95/39 41/68/39
f 39/95/39 40/96/39 41/68/39
f 41/68/39 10/70/39 12/72/39
f 24/66/39 26/84/39 33/67/39
f 26/84/39 28/86/39 33/67/39
f 28/86/39 30/88/39 33/67/39
f 33/67/39 35/91/39 41/68/39
f 35/91/39 37/93/39 41/68/39
f 41/68/39 12/72/39 16/65/39
f 16/65/39 20/79/39 24/66/39
f 41/68/39 16/65/39 33/67/39
o Cube.002_Cube.003
v -1.396871 0.126618 1.386113
v -1.396871 0.447696 1.386113
v -1.396871 0.126618 -1.386907
v -1.396871 0.447696 -1.386907
v 1.376149 0.126618 1.386113
v 1.376149 0.447696 1.386113
v 1.376149 0.126618 -1.386907
v 1.376149 0.447696 -1.386907
vt 0.808393 0.479358
vt 0.868914 0.020642
vt 0.868914 0.479358
vt 0.976479 0.020642
vt 0.915957 0.479358
vt 0.915957 0.020642
vt 0.761350 0.020642
vt 0.700828 0.479358
vt 0.700828 0.020642
vt 0.653785 0.020642
vt 0.593264 0.479358
vt 0.593264 0.020642
vt 0.023521 0.979358
vt 0.546221 0.520642
vt 0.546221 0.979358
vt 0.546221 0.479358
vt 0.023521 0.020642
vt 0.546221 0.020642
vt 0.808393 0.020642
vt 0.976479 0.479358
vt 0.761350 0.479358
vt 0.653785 0.479358
vt 0.023521 0.520642
vt 0.023522 0.479358
vn -1.0000 0.0000 0.0000
vn 0.0000 0.0000 -1.0000
vn 1.0000 0.0000 0.0000
vn 0.0000 0.0000 1.0000
vn 0.0000 -1.0000 0.0000
vn 0.0000 1.0000 0.0000
usemtl Plate
s off
f 43/97/40 44/98/40 42/99/40
f 45/100/41 48/101/41 44/102/41
f 49/103/42 46/104/42 48/105/42
f 47/106/43 42/107/43 46/108/43
f 48/109/44 42/110/44 44/111/44
f 45/112/45 47/113/45 49/114/45
f 43/97/40 45/115/40 44/98/40
f 45/100/41 49/116/41 48/101/41
f 49/103/42 47/117/42 46/104/42
f 47/106/43 43/118/43 42/107/43
f 48/109/44 46/119/44 42/110/44
f 45/112/45 43/120/45 47/113/45
